<svg xmlns="http://www.w3.org/2000/svg" xmlns:xlink="http://www.w3.org/1999/xlink" viewBox="0 0 274.41 182"><defs><style>.cls-1{font-size:30.59px;font-family:Roboto-Regular, Roboto;letter-spacing:-0.01em;}.cls-2,.cls-3{font-family:Roboto-Bold, Roboto;font-weight:700;}.cls-2{letter-spacing:-0.01em;}.cls-3{letter-spacing:-0.02em;}.cls-4{fill:url(#linear-gradient);}.cls-5{fill:url(#linear-gradient-2);}.cls-6{fill:url(#linear-gradient-3);}.cls-7{fill:url(#linear-gradient-4);}.cls-8{fill:url(#linear-gradient-5);}.cls-9{fill:url(#linear-gradient-6);}</style><linearGradient id="linear-gradient" x1="1078.84" y1="176.67" x2="1232.04" y2="176.67" gradientTransform="translate(-1018.24 -124.05)" gradientUnits="userSpaceOnUse"><stop offset="0" stop-color="#8a95ca"/><stop offset="1" stop-color="#cd8ebf"/></linearGradient><linearGradient id="linear-gradient-2" x1="1078.84" y1="178.4" x2="1232.04" y2="178.4" gradientTransform="translate(-1018.24 -124.05)" gradientUnits="userSpaceOnUse"><stop offset="0" stop-color="#8a95ca"/><stop offset="1" stop-color="#9253a1"/></linearGradient><linearGradient id="linear-gradient-3" x1="90.33" y1="176.21" x2="101.92" y2="176.21" gradientTransform="matrix(1, 0, 0, 1, 0, 0)" xlink:href="#linear-gradient"/><linearGradient id="linear-gradient-4" x1="117.72" y1="176.21" x2="129.3" y2="176.21" gradientUnits="userSpaceOnUse"><stop offset="0" stop-color="#fff575"/><stop offset="0.26" stop-color="#ffec74"/><stop offset="0.68" stop-color="#fed570"/><stop offset="1" stop-color="#fdbf6c"/></linearGradient><linearGradient id="linear-gradient-5" x1="145.1" y1="176.21" x2="156.69" y2="176.21" gradientUnits="userSpaceOnUse"><stop offset="0" stop-color="#93d3c5"/><stop offset="1" stop-color="#3ab0ba"/></linearGradient><linearGradient id="linear-gradient-6" x1="172.49" y1="176.21" x2="184.08" y2="176.21" gradientUnits="userSpaceOnUse"><stop offset="0" stop-color="#fdc797"/><stop offset="0.23" stop-color="#fcbe94"/><stop offset="0.6" stop-color="#f9a78b"/><stop offset="1" stop-color="#f4867e"/></linearGradient></defs><title>mdc_logo</title><g id="Layer_2" data-name="Layer 2"><g id="Header"><text class="cls-1" transform="translate(0 148.43)">My Digital <tspan class="cls-2" x="138.08" y="0">Concie</tspan><tspan class="cls-3" x="230.73" y="0">r</tspan><tspan class="cls-2" x="241.21" y="0">ge</tspan></text><path id="_Path_" data-name="&lt;Path&gt;" class="cls-4" d="M212.16,17.73a8.11,8.11,0,0,1-10.08,2.45,36.67,36.67,0,0,0-52.67,29.68,1.93,1.93,0,0,0,0,.24,23.14,23.14,0,0,0-.13,3A56.38,56.38,0,0,1,141,81.26c-.41.66-.84,1.31-1.28,1.95l-.17.24c-.21.31-.44.61-.66.92-8.28,11.08-21,17-23.12,18a51.72,51.72,0,0,1-5.9,2,26.62,26.62,0,0,1-6.88.89l-31.13,0A11.21,11.21,0,0,1,60.61,94V53.07H78.1V78.46a11.19,11.19,0,0,0,11.2,11.2h8.08c1.08,0,2.14-.13,3.2-.26h.07a36.48,36.48,0,0,0,31.91-35.64c0-1,0-1.52,0-1.52,2.43-36.51,32.27-48,37-49.63a53,53,0,0,1,39.59,2.75A8.28,8.28,0,0,1,212.16,17.73Z"/><path id="_Path_2" data-name="&lt;Path&gt;" class="cls-5" d="M212.16,89.23a8.11,8.11,0,0,0-10.08-2.46A36.65,36.65,0,0,1,175.51,89a36.76,36.76,0,0,1-26.1-31.91,1.93,1.93,0,0,1,0-.24,23.14,23.14,0,0,1-.13-3A56.38,56.38,0,0,0,141,25.7c-.41-.66-.84-1.31-1.28-1.95l-.17-.24c-.21-.31-.44-.61-.66-.92-8.28-11.08-21-17-23.12-18a53.7,53.7,0,0,0-5.9-2A26.62,26.62,0,0,0,103,1.76l-31.13,0a11.2,11.2,0,0,0-11.21,11.2v41H78.1V28.5A11.2,11.2,0,0,1,89.3,17.29h8.08c1.08,0,2.14.14,3.2.27h.07A36.47,36.47,0,0,1,132.56,53.2c0,1,0,1.53,0,1.53,2.43,36.5,32.27,48,37,49.62a52.89,52.89,0,0,0,39.59-2.74A8.28,8.28,0,0,0,212.16,89.23Z"/><circle class="cls-6" cx="96.12" cy="176.21" r="5.79"/><circle class="cls-7" cx="123.51" cy="176.21" r="5.79"/><circle class="cls-8" cx="150.9" cy="176.21" r="5.79"/><circle class="cls-9" cx="178.29" cy="176.21" r="5.79"/></g></g></svg>