<svg xmlns="http://www.w3.org/2000/svg" viewBox="0 0 910.47 154.54"><defs><style>.cls-1{fill:#414042;}.cls-2,.cls-4,.cls-6{fill:none;}.cls-2,.cls-4{stroke:#f4867e;}.cls-2,.cls-6{stroke-linecap:round;stroke-linejoin:round;}.cls-2{stroke-width:7px;}.cls-3{fill:#fff;}.cls-4{stroke-miterlimit:10;stroke-width:6px;}.cls-5{fill:#f4867e;}.cls-6{stroke:#414042;stroke-width:4px;}</style></defs><title>services_1</title><g id="Layer_2" data-name="Layer 2"><g id="Header"><g id="_Group_" data-name="&lt;Group&gt;"><path id="_Compound_Path_" data-name="&lt;Compound Path&gt;" class="cls-1" d="M421,94.47a1.79,1.79,0,0,0,.51.07,2,2,0,0,0,1.87-1.43A25.59,25.59,0,0,1,434,77.93a22.94,22.94,0,0,1,7.5-3.31,1.94,1.94,0,0,0-.7-3.82,26.17,26.17,0,0,0-8.78,3.79,29.58,29.58,0,0,0-12.39,17.5A1.94,1.94,0,0,0,421,94.47Z"/><path id="_Compound_Path_2" data-name="&lt;Compound Path&gt;" class="cls-1" d="M496.41,121.34h-2v-2.52a4.12,4.12,0,0,0-4.11-4.11H411.19a4.12,4.12,0,0,0-4.11,4.11v2.52h-2a4.12,4.12,0,0,0-4.11,4.11v6.88a4.12,4.12,0,0,0,4.11,4.11h91.31a4.11,4.11,0,0,0,4.11-4.11v-6.88a4.11,4.11,0,0,0-4.11-4.11Zm-91.54,11v-6.88a.23.23,0,0,1,.23-.23H409a1.94,1.94,0,0,0,1.94-1.94v-4.46a.23.23,0,0,1,.23-.23h79.14a.23.23,0,0,1,.23.23v4.46a1.94,1.94,0,0,0,1.94,1.94h3.91a.23.23,0,0,1,.23.23v6.88a.23.23,0,0,1-.23.23H405.1a.24.24,0,0,1-.23-.23Z"/><path id="_Compound_Path_3" data-name="&lt;Compound Path&gt;" class="cls-1" d="M492.52,99.12a41.84,41.84,0,0,0-35.08-38.57V53.11h1a6.79,6.79,0,0,0,0-13.57H443.1a6.79,6.79,0,0,0,0,13.57h1v7.44A41.84,41.84,0,0,0,409,99.12a4.12,4.12,0,0,0-3.86,4.1V108a4.11,4.11,0,0,0,4.11,4.1h83a4.11,4.11,0,0,0,4.11-4.1v-4.79a4.12,4.12,0,0,0-3.85-4.1Zm-39-45.85v6.49H448V53.27ZM443.1,49.22a2.9,2.9,0,0,1,0-5.8h15.31a2.9,2.9,0,0,1,0,5.8Zm7.66,14.68a37.72,37.72,0,0,1,37.85,35h-75.7a37.72,37.72,0,0,1,37.85-35ZM492.49,108a.22.22,0,0,1-.23.22h-83A.23.23,0,0,1,409,108v-4.79a.24.24,0,0,1,.23-.23h83a.23.23,0,0,1,.23.23Z"/></g><g id="_Group_2" data-name="&lt;Group&gt;"><g id="_Group_3" data-name="&lt;Group&gt;"><line id="_Path_" data-name="&lt;Path&gt;" class="cls-2" x1="487.21" y1="49.22" x2="499.62" y2="22.17"/><line id="_Path_2" data-name="&lt;Path&gt;" class="cls-2" x1="498.21" y1="60.22" x2="526.88" y2="50.54"/><line id="_Path_3" data-name="&lt;Path&gt;" class="cls-2" x1="502.54" y1="45.54" x2="517.71" y2="33.32"/></g><g id="_Group_4" data-name="&lt;Group&gt;"><line id="_Path_4" data-name="&lt;Path&gt;" class="cls-2" x1="414.3" y1="49.22" x2="401.9" y2="22.17"/><line id="_Path_5" data-name="&lt;Path&gt;" class="cls-2" x1="403.3" y1="60.22" x2="374.63" y2="50.54"/><line id="_Path_6" data-name="&lt;Path&gt;" class="cls-2" x1="398.97" y1="45.54" x2="383.8" y2="33.32"/></g></g><g id="_Group_5" data-name="&lt;Group&gt;"><line class="cls-3" x1="592.43" y1="109.4" x2="694.08" y2="107.78"/><line class="cls-4" x1="592.43" y1="109.4" x2="676.86" y2="108.05"/><polygon class="cls-5" points="673.55 120.08 694.08 107.78 673.17 96.14 673.55 120.08"/></g><g id="_Group_6" data-name="&lt;Group&gt;"><line class="cls-3" x1="694.08" y1="79.09" x2="592.43" y2="80.72"/><line class="cls-4" x1="694.08" y1="79.09" x2="609.66" y2="80.44"/><polygon class="cls-5" points="612.97 68.42 592.43 80.72 613.35 92.35 612.97 68.42"/></g><g id="_Group_7" data-name="&lt;Group&gt;"><line class="cls-3" x1="207.43" y1="109.4" x2="309.08" y2="107.78"/><line class="cls-4" x1="207.43" y1="109.4" x2="291.86" y2="108.05"/><polygon class="cls-5" points="288.55 120.08 309.08 107.78 288.17 96.14 288.55 120.08"/></g><g id="_Group_8" data-name="&lt;Group&gt;"><line class="cls-3" x1="309.08" y1="79.09" x2="207.43" y2="80.72"/><line class="cls-4" x1="309.08" y1="79.09" x2="224.66" y2="80.44"/><polygon class="cls-5" points="227.97 68.42 207.43 80.72 228.35 92.35 227.97 68.42"/></g><path id="_Path_7" data-name="&lt;Path&gt;" class="cls-5" d="M10,142.73a10,10,0,0,0-10,10H20A10,10,0,0,0,10,142.73Z"/><path class="cls-5" d="M93.17,101a8.48,8.48,0,0,0-8.48,8.47h17A8.48,8.48,0,0,0,93.17,101Z"/><path class="cls-5" d="M102.83,57.07a8.48,8.48,0,0,0,12-.21L102.62,45.09A8.47,8.47,0,0,0,102.83,57.07Z"/><path class="cls-5" d="M68.1,66a8.48,8.48,0,1,1,8.47-8.48A8.48,8.48,0,0,1,68.1,66Z"/><path class="cls-5" d="M89,86.9a8.48,8.48,0,1,1,8.48-8.47A8.48,8.48,0,0,1,89,86.9Z"/><path class="cls-5" d="M72.69,106.29a8.48,8.48,0,1,1,8.48-8.47A8.48,8.48,0,0,1,72.69,106.29Z"/><path class="cls-1" d="M128,69.15h0A9.52,9.52,0,0,0,126.48,68l-6.59-7.07a11,11,0,0,0,.93-2.9l.2-1.18-14.51-14c-.71-.74-4.25-3.88-12.57-2.29l-1.32,0a21.56,21.56,0,1,0-21.16-.38l-2.1,0c-1.67-.1-8.58.86-23.43,18.76l-.57.69,0,.89s0,.68.17,1.7l-2.75,2.75-5.16-4.36A9.82,9.82,0,1,0,25,75.51L37.35,86a9.58,9.58,0,0,0,7.52,2.58c2.63-.36,5-2,7.14-5a2.53,2.53,0,0,0,.28-.35l4.85-4.85-1.2,35.48h5.41v40.71H80.09V113.81h3.07v40.71h18.75V113.81h2.47v-.45h.71V96.55A9.84,9.84,0,0,0,117.84,95l10.87-12A9.8,9.8,0,0,0,128,69.15ZM65.38,21.55a17,17,0,1,1,17,17A17,17,0,0,1,65.38,21.55Zm17,21.56a21.43,21.43,0,0,0,7.95-1.53l-.14.8c-.19,1-3.12,2.95-8.06,2.95s-8-2-8.05-3l0-.89A21.33,21.33,0,0,0,82.37,43.11ZM49.15,79.87a3,3,0,0,0-.47.47l-.14.14-.1.19c-1.39,2-2.8,3.16-4.2,3.35a5.18,5.18,0,0,1-4-1.55L27.94,72a5.25,5.25,0,1,1,6.78-8l8.37,7.08,5-5.06,8.1,6.76ZM100.54,69v39.81h-.65v.46H97.34V150H87.73V109.25H75.53V150H65.91V109.25H60.67L62.1,66.92l-2.62,2.62-9.35-7.8c0-.26-.06-.49-.08-.7C63,45.65,68.66,44.7,69.13,44.65l1,0c1.61,3.09,6.29,5.23,12,5.23,5.54,0,10-1.9,11.81-4.8h.42l.24,0c6.26-1.25,8.53.83,8.55.84L116,58.37a8.63,8.63,0,0,1-.85,1.69l-.94,1.49,1.91,2.06L108,70.22l-2-2.19Zm4.56,4.88,2.74,2.94-2.74,3ZM125.33,80l-10.87,12a5.25,5.25,0,1,1-7.78-7.06L114,76.76l-3-3.19L119.26,67l4.37,4.69.32.17a5.62,5.62,0,0,1,1,.72,5.21,5.21,0,0,1,1.72,3.63A5.28,5.28,0,0,1,125.33,80Z"/><path class="cls-3" d="M21,120.44,10,150.2a3.83,3.83,0,0,1-3.58,2.49,3.93,3.93,0,0,1-1.31-.23,3.8,3.8,0,0,1-2.26-4.88L36.32,56.51A3.82,3.82,0,0,1,39.89,54a3.88,3.88,0,0,1,1.31.23,3.72,3.72,0,0,1,2.14,2,3.77,3.77,0,0,1,.12,2.91L25,109.42"/><path class="cls-1" d="M39.89,55.85a2,2,0,0,1,1.86,2.66L8.32,149.57a2,2,0,0,1-1.86,1.3,1.86,1.86,0,0,1-.68-.13h0a2,2,0,0,1-1.17-2.53L38,57.14a2,2,0,0,1,1.86-1.29m0-3.66h0a5.65,5.65,0,0,0-5.28,3.69L1.18,147a5.63,5.63,0,1,0,10.57,3.88L45.18,59.77a5.65,5.65,0,0,0-5.29-7.58Z"/><circle class="cls-6" cx="842.72" cy="37.47" r="16.44"/><path class="cls-6" d="M867.35,98.59l-3.74-29.06a8.18,8.18,0,0,0-8.17-7.4h-4.5a4.12,4.12,0,0,0-2.91,1.2l-5.31,5.31-5.31-5.31a4.1,4.1,0,0,0-2.91-1.2H830a8.17,8.17,0,0,0-8.17,7.29L818.1,98.6a4.1,4.1,0,0,0,4.08,4.62h4.43l3.44,41.92a8.19,8.19,0,0,0,8.18,7.4h9a8.21,8.21,0,0,0,8.18-7.48l3.43-41.84h4.43a4.12,4.12,0,0,0,4.08-4.63Z"/><circle class="cls-6" cx="883.82" cy="37.47" r="16.44"/><path class="cls-6" d="M801.63,21a16.44,16.44,0,1,0,16.44,16.43A16.45,16.45,0,0,0,801.63,21Z"/><path class="cls-6" d="M908.44,98.59l-3.73-29.06a8.18,8.18,0,0,0-8.17-7.4H892a4.09,4.09,0,0,0-2.9,1.2l-5.31,5.31-5.31-5.31a4.13,4.13,0,0,0-2.9-1.2H871.1a7.73,7.73,0,0,0-1.45.27,15.84,15.84,0,0,1,2.13,6.18l3.73,29a12.29,12.29,0,0,1-3,9.75,11.86,11.86,0,0,1-4.08,2.89l2.73,26.74a8.19,8.19,0,0,0,8.18,7.4h9a8.21,8.21,0,0,0,8.18-7.47l3.42-33.63h4.43a4.1,4.1,0,0,0,3.08-1.39,4,4,0,0,0,1-3.24"/><path class="cls-6" d="M812.92,107.25a12.3,12.3,0,0,1-3-9.69l3.74-29.18a15.12,15.12,0,0,1,2-6,7.82,7.82,0,0,0-1.38-.26h-4.5a4.1,4.1,0,0,0-2.91,1.2l-5.31,5.31-5.31-5.31a4.11,4.11,0,0,0-2.9-1.2h-4.51a8.18,8.18,0,0,0-8.17,7.29L777,98.6a4.11,4.11,0,0,0,4.08,4.62h4.44l3.43,33.7a8.2,8.2,0,0,0,8.18,7.4h9a8.22,8.22,0,0,0,8.19-7.47l2.73-26.67A12.36,12.36,0,0,1,812.92,107.25Z"/></g></g></svg>