<svg xmlns="http://www.w3.org/2000/svg" viewBox="0 0 38.99 31.68"><defs><style>.cls-1{fill:#fff;}</style></defs><title>tw</title><g id="Layer_2" data-name="Layer 2"><g id="Header"><path class="cls-1" d="M35,7.89c0,.34,0,.69,0,1,0,10.56-8,22.75-22.76,22.75A22.62,22.62,0,0,1,0,28.09a17.19,17.19,0,0,0,1.91.11,16.07,16.07,0,0,0,9.93-3.42,8,8,0,0,1-7.47-5.56,7.51,7.51,0,0,0,1.51.14A7.71,7.71,0,0,0,8,19.08a8,8,0,0,1-6.42-7.84.38.38,0,0,1,0-.1,7.91,7.91,0,0,0,3.63,1A8,8,0,0,1,1.63,5.48a8.08,8.08,0,0,1,1.08-4A22.73,22.73,0,0,0,19.2,9.82,7.81,7.81,0,0,1,19,8,8,8,0,0,1,32.83,2.52,15.85,15.85,0,0,0,37.92.58,8.07,8.07,0,0,1,34.39,5,15.66,15.66,0,0,0,39,3.75a16.36,16.36,0,0,1-4,4.14Z"/></g></g></svg>
