<svg xmlns="http://www.w3.org/2000/svg" xmlns:xlink="http://www.w3.org/1999/xlink" viewBox="0 0 460.73 313.5"><defs><style>.cls-1{fill:url(#linear-gradient);}.cls-2{fill:url(#linear-gradient-2);}.cls-3{fill:url(#linear-gradient-3);}.cls-4{fill:url(#linear-gradient-4);}.cls-5{fill:url(#linear-gradient-5);}.cls-6{fill:url(#linear-gradient-6);}.cls-7{fill:url(#linear-gradient-7);}.cls-8{fill:url(#linear-gradient-8);}.cls-9{font-size:28.71px;fill:#231f20;font-family:Roboto-Regular, Roboto;}.cls-10{letter-spacing:-0.01em;}.cls-11{letter-spacing:-0.01em;}.cls-12{letter-spacing:-0.01em;}.cls-13{fill:none;stroke:#f2f2f3;stroke-linecap:round;stroke-linejoin:round;stroke-width:5px;}</style><linearGradient id="linear-gradient" x1="-5257.31" y1="5054.08" x2="-5163.95" y2="5054.08" gradientTransform="translate(-4712.47 -4943.81) rotate(-90)" gradientUnits="userSpaceOnUse"><stop offset="0" stop-color="#93d3c5"/><stop offset="0.35" stop-color="#93d2c1"/><stop offset="0.71" stop-color="#92d1b5"/><stop offset="1" stop-color="#92cfa5"/></linearGradient><linearGradient id="linear-gradient-2" x1="-5257.31" y1="5055.13" x2="-5163.95" y2="5055.13" gradientTransform="translate(-4712.47 -4943.81) rotate(-90)" gradientUnits="userSpaceOnUse"><stop offset="0" stop-color="#93d3c5"/><stop offset="1" stop-color="#3ab0ba"/></linearGradient><linearGradient id="linear-gradient-3" x1="-5387.76" y1="4846.23" x2="-5294.4" y2="4846.23" gradientTransform="translate(-4582.03 -5074.26) rotate(-90)" gradientUnits="userSpaceOnUse"><stop offset="0" stop-color="#8a95ca"/><stop offset="1" stop-color="#cd8ebf"/></linearGradient><linearGradient id="linear-gradient-4" x1="-5387.76" y1="4847.29" x2="-5294.4" y2="4847.29" gradientTransform="translate(-4582.03 -5074.26) rotate(-90)" gradientUnits="userSpaceOnUse"><stop offset="0" stop-color="#8a95ca"/><stop offset="1" stop-color="#9253a1"/></linearGradient><linearGradient id="linear-gradient-5" x1="-5130.14" y1="5030" x2="-5036.78" y2="5030" gradientTransform="translate(-4839.65 -4816.64) rotate(-90)" gradientUnits="userSpaceOnUse"><stop offset="0" stop-color="#fff575"/><stop offset="1" stop-color="#ffe67d"/></linearGradient><linearGradient id="linear-gradient-6" x1="-5130.14" y1="5031.05" x2="-5036.78" y2="5031.05" gradientTransform="translate(-4839.65 -4816.64) rotate(-90)" gradientUnits="userSpaceOnUse"><stop offset="0" stop-color="#fff575"/><stop offset="0.26" stop-color="#ffec74"/><stop offset="0.68" stop-color="#fed570"/><stop offset="1" stop-color="#fdbf6c"/></linearGradient><linearGradient id="linear-gradient-7" x1="-5012.12" y1="5072.15" x2="-4918.76" y2="5072.15" gradientTransform="translate(-4957.67 -4698.62) rotate(-90)" gradientUnits="userSpaceOnUse"><stop offset="0" stop-color="#fdc797"/><stop offset="0.65" stop-color="#fdc998"/><stop offset="0.97" stop-color="#fed19b"/><stop offset="1" stop-color="#fed29b"/></linearGradient><linearGradient id="linear-gradient-8" x1="-5012.12" y1="5073.21" x2="-4918.76" y2="5073.21" gradientTransform="translate(-4957.67 -4698.62) rotate(-90)" gradientUnits="userSpaceOnUse"><stop offset="0" stop-color="#fdc797"/><stop offset="0.23" stop-color="#fcbe94"/><stop offset="0.6" stop-color="#f9a78b"/><stop offset="1" stop-color="#f4867e"/></linearGradient></defs><title>values</title><g id="Layer_2" data-name="Layer 2"><g id="Header"><g id="_Group_" data-name="&lt;Group&gt;"><path id="_Path_" data-name="&lt;Path&gt;" class="cls-1" d="M320.35,221.14a4.93,4.93,0,0,1,1.49,6.14,22.35,22.35,0,0,0,18.09,32.1h.14a14.24,14.24,0,0,0,1.81.08,34.27,34.27,0,0,1,17.18,5.06c.41.25.8.51,1.19.78l.15.1.56.41c6.75,5,10.37,12.79,11,14.09a32.85,32.85,0,0,1,1.2,3.59,16.49,16.49,0,0,1,.54,4.19l0,19a6.83,6.83,0,0,1-6.83,6.83h-25V302.84h15.48a6.83,6.83,0,0,0,6.83-6.83V291.1h0c0-.66-.08-1.31-.16-1.95v-.05a22.23,22.23,0,0,0-21.72-19.44c-.59,0-.93,0-.93,0-22.25-1.48-29.26-19.67-30.24-22.55A32.25,32.25,0,0,1,312.8,223,5.06,5.06,0,0,1,320.35,221.14Z"/><path id="_Path_2" data-name="&lt;Path&gt;" class="cls-2" d="M363.92,221.14a5,5,0,0,0-1.5,6.14,22.2,22.2,0,0,1,1.36,16.2,22.4,22.4,0,0,1-19.44,15.9h-.15a14.07,14.07,0,0,1-1.8.08,34.32,34.32,0,0,0-17.19,5.06c-.4.25-.79.51-1.19.78a.71.71,0,0,1-.14.1l-.56.41c-6.76,5-10.38,12.79-10.95,14.09a30.85,30.85,0,0,0-1.2,3.59,16.07,16.07,0,0,0-.55,4.19v19a6.82,6.82,0,0,0,6.83,6.83h24.95V302.84H326.91a6.83,6.83,0,0,1-6.83-6.83V291.1h0c0-.66.08-1.31.17-1.95v-.05A22.23,22.23,0,0,1,342,269.65c.59,0,.93,0,.93,0,22.24-1.48,29.26-19.67,30.24-22.55A32.33,32.33,0,0,0,371.46,223,5,5,0,0,0,363.92,221.14Z"/></g><path id="_Path_3" data-name="&lt;Path&gt;" class="cls-3" d="M242.94,221.14a4.93,4.93,0,0,1,1.5,6.14,22.35,22.35,0,0,0,18.08,32.1h.15a14.24,14.24,0,0,0,1.81.08,34.3,34.3,0,0,1,17.18,5.06c.4.25.8.51,1.19.78l.14.1.57.41c6.75,5,10.37,12.79,10.94,14.09a30.89,30.89,0,0,1,1.21,3.59,16.49,16.49,0,0,1,.54,4.19l0,19a6.83,6.83,0,0,1-6.83,6.83h-25V302.84H280a6.82,6.82,0,0,0,6.82-6.83V291.1h0c0-.66-.08-1.31-.16-1.95v-.05a22.21,22.21,0,0,0-21.71-19.44c-.59,0-.93,0-.93,0-22.25-1.48-29.27-19.67-30.24-22.55A32.25,32.25,0,0,1,235.4,223,5,5,0,0,1,242.94,221.14Z"/><path id="_Path_4" data-name="&lt;Path&gt;" class="cls-4" d="M286.52,221.14a5,5,0,0,0-1.5,6.14,22.26,22.26,0,0,1,2.28,10.61,22.39,22.39,0,0,1-20.36,21.49h-.15a14.07,14.07,0,0,1-1.8.08,34.32,34.32,0,0,0-17.19,5.06c-.4.25-.8.51-1.19.78l-.14.1-.56.41c-6.76,5-10.38,12.79-10.95,14.09a30.85,30.85,0,0,0-1.2,3.59,16.07,16.07,0,0,0-.55,4.19v19A6.82,6.82,0,0,0,240,313.5h25V302.84H249.51a6.83,6.83,0,0,1-6.83-6.83V291.1h0c0-.66.08-1.31.16-1.95v-.05a22.22,22.22,0,0,1,21.71-19.44c.6,0,.93,0,.93,0,22.25-1.48,29.27-19.67,30.24-22.55a31.63,31.63,0,0,0,1.59-10A32.16,32.16,0,0,0,294.06,223,5,5,0,0,0,286.52,221.14Z"/><path id="_Path_5" data-name="&lt;Path&gt;" class="cls-5" d="M169.09,221.14a4.93,4.93,0,0,1,1.49,6.14,22.35,22.35,0,0,0,18.09,32.1h.15a14.07,14.07,0,0,0,1.8.08,34.27,34.27,0,0,1,17.18,5.06c.41.25.8.51,1.19.78l.15.1.56.41c6.75,5,10.37,12.79,11,14.09a32.85,32.85,0,0,1,1.2,3.59,16.51,16.51,0,0,1,.55,4.19v19a6.83,6.83,0,0,1-6.83,6.83h-25V302.84H206.1a6.83,6.83,0,0,0,6.83-6.83V291.1h0c0-.66-.09-1.31-.17-1.95v-.05A22.23,22.23,0,0,0,191,269.65c-.59,0-.93,0-.93,0-22.24-1.48-29.26-19.67-30.24-22.55A32.33,32.33,0,0,1,161.55,223,5,5,0,0,1,169.09,221.14Z"/><path id="_Path_6" data-name="&lt;Path&gt;" class="cls-6" d="M212.66,221.14a4.93,4.93,0,0,0-1.49,6.14,22.35,22.35,0,0,1-18.09,32.1h-.14a14.24,14.24,0,0,1-1.81.08A34.27,34.27,0,0,0,174,264.53c-.41.25-.8.51-1.19.78l-.15.1-.56.41c-6.75,5-10.37,12.79-11,14.09a32.85,32.85,0,0,0-1.2,3.59,16.06,16.06,0,0,0-.54,4.19l0,19a6.83,6.83,0,0,0,6.83,6.83h25V302.84H175.65a6.83,6.83,0,0,1-6.83-6.83V291.1h0c0-.66.09-1.31.17-1.95v-.05a22.23,22.23,0,0,1,21.72-19.44c.59,0,.93,0,.93,0,22.24-1.48,29.26-19.67,30.24-22.55A32.2,32.2,0,0,0,220.2,223,5,5,0,0,0,212.66,221.14Z"/><path id="_Path_7" data-name="&lt;Path&gt;" class="cls-7" d="M93.23,221.14a4.93,4.93,0,0,1,1.49,6.14,22.35,22.35,0,0,0,18.09,32.1H113a14.24,14.24,0,0,0,1.81.08,34.27,34.27,0,0,1,17.18,5.06c.41.25.8.51,1.19.78l.15.1.56.41c6.75,5,10.37,12.79,10.95,14.09a32.85,32.85,0,0,1,1.2,3.59,16.49,16.49,0,0,1,.54,4.19l0,19a6.83,6.83,0,0,1-6.83,6.83h-25V302.84h15.48a6.83,6.83,0,0,0,6.83-6.83V291.1h0c0-.66-.08-1.31-.16-1.95v-.05a22.23,22.23,0,0,0-21.72-19.44c-.59,0-.93,0-.93,0C92,268.16,85,250,84,247.09A32.25,32.25,0,0,1,85.68,223,5.06,5.06,0,0,1,93.23,221.14Z"/><path id="_Path_8" data-name="&lt;Path&gt;" class="cls-8" d="M136.8,221.14a5,5,0,0,0-1.5,6.14,22.2,22.2,0,0,1,1.36,16.2,22.4,22.4,0,0,1-19.44,15.9h-.15a14.07,14.07,0,0,1-1.8.08,34.32,34.32,0,0,0-17.19,5.06c-.4.25-.79.51-1.19.78a.71.71,0,0,1-.14.1l-.56.41c-6.76,5-10.38,12.79-11,14.09A30.85,30.85,0,0,0,84,283.5a16.07,16.07,0,0,0-.55,4.19v19a6.82,6.82,0,0,0,6.83,6.83h25V302.84H99.79A6.83,6.83,0,0,1,93,296V291.1h0c0-.66.08-1.31.17-1.95v-.05a22.23,22.23,0,0,1,21.72-19.44c.59,0,.93,0,.93,0C138,268.16,145,250,146,247.09A32.33,32.33,0,0,0,144.34,223,5,5,0,0,0,136.8,221.14Z"/><text class="cls-9" transform="translate(67.52 64.7)"><tspan class="cls-10">F</tspan><tspan x="15.5" y="0">riendship</tspan><tspan class="cls-11" x="-9.41" y="43.06">A</tspan><tspan x="9.16" y="43.06">uthenticity</tspan><tspan x="-6.21" y="86.12">Connection</tspan></text><text class="cls-9" transform="translate(231.64 64.7)">Determination<tspan x="22.38" y="43.06">E</tspan><tspan class="cls-12" x="38.7" y="43.06">x</tspan><tspan x="52.64" y="43.06">cellence</tspan><tspan x="16.75" y="86.12">Community</tspan></text><path class="cls-13" d="M443.88,2.5h-427A14.4,14.4,0,0,0,2.5,16.85V171.16a14.4,14.4,0,0,0,14.35,14.35H63.2l51.14,34.09-19-34.09h66.53l29.07,34.09V185.51h74.17V219.6l29.07-34.09h66.53L341.61,219.6l51.14-34.09h51.13a14.39,14.39,0,0,0,14.35-14.35V16.85A14.39,14.39,0,0,0,443.88,2.5Z"/></g></g></svg>